<svg xmlns="http://www.w3.org/2000/svg" viewBox="0 0 24 24" fill="currentColor">
  <path d="M12 .5C5.65.5.5 5.65.5 12c0 5.1 3.29 9.4 7.86 10.92.58.1.79-.25.79-.55 0-.27-.01-1.17-.02-2.12-3.2.69-3.87-1.37-3.87-1.37-.53-1.36-1.3-1.72-1.3-1.72-1.06-.72.08-.71.08-.71 1.18.08 1.8 1.21 1.8 1.21 1.04 1.78 2.72 1.26 3.38.97.1-.75.41-1.26.74-1.55-2.56-.29-5.26-1.28-5.26-5.68 0-1.25.45-2.27 1.2-3.07-.12-.29-.52-1.47.11-3.07 0 0 .98-.31 3.2 1.17a11.1 11.1 0 0 1 5.82 0c2.22-1.48 3.19-1.17 3.19-1.17.63 1.6.23 2.78.11 3.07.75.8 1.2 1.82 1.2 3.07 0 4.41-2.7 5.39-5.28 5.67.42.36.8 1.07.8 2.16 0 1.56-.01 2.82-.01 3.2 0 .3.21.65.8.54A10.52 10.52 0 0 0 23.5 12C23.5 5.65 18.35.5 12 .5Z"/>
</svg>
